<svg xmlns="http://www.w3.org/2000/svg" viewBox="0 0 484.68 362.89"  xmlns:v="https://vecta.io/nano"><path d="M143.55 362.89H129.1q-37.7 0-56.06-17.68-18.36-17.68-18.36-53.61v-67.19a62.46 62.46 0 0 0-2.14-17.09 28 28 0 0 0-7.52-12.69 35.05 35.05 0 0 0-14.26-7.91q-8.89-2.73-22.36-2.74H0v-27.14h8.4q14.25 0 23.24-2.35 8.99-2.35 14.06-7.13a25.14 25.14 0 0 0 7-12.2 69.8 69.8 0 0 0 1.98-17.62V71.29a103.83 103.83 0 0 1 3.91-29.59 54.08 54.08 0 0 1 12.79-22.46q8.89-9.27 23-14.26 14.11-4.99 34.67-5h14.45v27.36h-11.47q-45.32 0-45.31 44v45.51q0 47.65-41.22 53.71 41.61 4.09 41.61 53.51v66.8q0 44.73 44.92 44.73h11.52zM340.93 0h14.45q37.69 0 56.05 17.68 18.36 17.68 18.36 53.61v45.12a62.34 62.34 0 0 0 2.15 17.13 27.91 27.91 0 0 0 7.52 12.69 35 35 0 0 0 14.36 7.91q9 2.74 22.46 2.74h8.4v27.14h-8.4q-14.26 0-23.34 2.35-9.08 2.35-14.16 7.13a25.11 25.11 0 0 0-7 12.2 69.31 69.31 0 0 0-2 17.58v68.36a104.2 104.2 0 0 1-3.9 29.59 54.7 54.7 0 0 1-12.68 22.42q-8.79 9.27-23 14.26-14.21 4.99-34.77 5h-14.5v-27.37h11.72q45.1 0 45.11-43.95v-67.57q0-47.65 41.21-53.51-41.59-4.5-41.6-53.71V72.07q0-44.73-44.72-44.73h-11.72z" fill="#333"/><path d="M254.56 124.54c9 0 27.2-3.52 39.68-8.32 11.2-3.84 17.28-8.32 19.84-8.32 12.16 0 29.12 3.84 29.12 17.92 0 6.4-3.2 11.2-12.48 15-7.68 2.88-31 9.28-51.84 9.28-8.64 0-19.2-5.12-27.84-9.92-.64 9.6-1 18.56-1 24.64a608.21 608.21 0 0 0 3.52 62.4 218.23 218.23 0 0 1 46.4 15.36c24 11.2 48.32 28.8 48.32 49.6 0 10.56-5.76 15.36-14.72 15.36-15.68 0-27.52-21.76-58.56-39.68a145 145 0 0 0-17.28-8.64 84.53 84.53 0 0 1 .64 9.28c0 25.6-14.08 49-64.64 49-35.84 0-62.4-15.36-62.4-43.2 0-34.88 38.72-50.56 84.48-50.56 3.84 0 7.68 0 11.2.32-.64-25.28-2.24-49-2.88-67.2l-2.88-74.56c-.64-6.4-2.88-9-8.32-11.52-7.36-3.84-17.92-5.76-24-6.72l-.64-4.16c8.64-5.12 19.84-10.88 31.36-10.88 21.76 0 46.08 15.68 46.08 27.2 0 8-5.76 11.2-8.64 19.84-1.6 5.44-3.2 16.64-4.48 28.48zm-27.2 124.8a164.18 164.18 0 0 0-32-3.2c-30.4 0-48 11.84-48 24 0 11.52 12.8 18.56 31.36 18.56 32.96 0 47.68-11.52 48.64-39.36z" fill="#f15a24"/></svg>